PathFileType	4	(X/Y/Z)	pose_F01_0-92.trc
DataRate	CameraRate	NumFrames	NumMarkers	Units	OrigDataRate	OrigDataStartFrame	OrigNumFrames
30	30	7	21	m	30	23	92
Frame#	Time	CHip			RHip			RKnee			RAnkle			RBigToe			RSmallToe			RHeel			LHip			LKnee			LAnkle			LBigToe			LSmallToe			LHeel			Neck			Nose			RShoulder			RElbow			RWrist			LShoulder			LElbow			LWrist			
		X1	Y1	Z1	X2	Y2	Z2	X3	Y3	Z3	X4	Y4	Z4	X5	Y5	Z5	X6	Y6	Z6	X7	Y7	Z7	X8	Y8	Z8	X9	Y9	Z9	X10	Y10	Z10	X11	Y11	Z11	X12	Y12	Z12	X13	Y13	Z13	X14	Y14	Z14	X15	Y15	Z15	X16	Y16	Z16	X17	Y17	Z17	X18	Y18	Z18	X19	Y19	Z19	X20	Y20	Z20	X21	Y21	Z21	
23	0.7666666666666667	-0.22091595898980626	1.8911131372955559	-0.5748817599978211	-0.23420464675615038	1.8868341687860164	-0.5172097161310951	-0.25860915463859796	1.7129166125066047	-0.4997455171240201	-0.19217484628224255	1.601807065392978	-0.41107263976794595										-0.2035459864707382	1.8943490644200076	-0.640017515127958	-0.20919561225815939	1.7241492972131762	-0.6273360001899753	-0.16276369027607396	1.5903952865833884	-0.5871565182689048	-0.1883557580440706	1.5445302720089729	-0.6066512877405341	-0.17240255984156366	1.5552546443021245	-0.6281730461217678	-0.15186953469218237	1.583439028775711	-0.5756600188470218	-0.20443306097069952	2.068925187500878	-0.601383376408463	-0.23589794575698206	2.1327392840315524	-0.6125354391917112	-0.22325072276948185	2.0655185160463616	-0.5200264220031229	-0.28773036146130054	2.026561762298912	-0.5160496043056106	-0.2680904643620799	2.0982374603324447	-0.5729849163378513	-0.18127869040847092	2.0745499607127367	-0.6658372731741704	-0.23049079138202855	2.028967811880793	-0.6991992494501779	-0.2359051775483622	2.1061078906964474	-0.6957518855725143
24	0.8	-0.2114497191637873	1.878224036754308	-0.5786486342352144	-0.22966587500930138	1.8749380106260005	-0.5195960404377492	-0.25491312184213366	1.7039188647199017	-0.5117698489707263	-0.19217484628224255	1.601807065392978	-0.41107263976794595										-0.19684934942061624	1.8814968565674104	-0.6448278731491227	-0.20246044283141088	1.7096177223595854	-0.6242114530508138	-0.15747075205376904	1.5822578613227642	-0.5840610395998075	-0.18609758728459663	1.5434558119216242	-0.6091166972836509	-0.16848252774339476	1.552943312771247	-0.6234189633720614	-0.14687741121570866	1.576560368113191	-0.5727841725583537	-0.19960329637453467	2.0538085711963454	-0.6000032171463506	-0.22988285694422042	2.1193268264927143	-0.6154660158564844	-0.21738245993850006	2.049944423151085	-0.5226334025729387	-0.2858035574485027	2.0136313271989614	-0.5397958018834151	-0.25924452434841216	2.092732586831756	-0.5794374081267127	-0.17720821962891067	2.059407717226925	-0.667640148283969	-0.23179167059875047	2.0192261071899287	-0.7018517713096131	-0.22363693335943594	2.090854444808622	-0.6793879742284227
25	0.8333333333333334	-0.2035817944583527	1.8785073308605778	-0.5908184106798188	-0.217059027102973	1.8740425444827828	-0.5328059938609476	-0.25373842242357497	1.708962594617488	-0.5178910508757059	-0.19217484628224255	1.601807065392978	-0.41107263976794595										-0.1850399280265853	1.880787239751336	-0.6529899284210904	-0.1964183907675498	1.707351660744655	-0.6219242713403484	-0.15944276860049447	1.5807472706290802	-0.5819419028404974	-0.18587801959421335	1.5435340848042876	-0.6179065478296346	-0.16936914810423076	1.552838916763509	-0.6267078076094381	-0.15320260362352228	1.575439120221182	-0.5662401078588183	-0.19537278564664648	2.0548832841272895	-0.6042687675985848	-0.23029494696671216	2.1127378842035154	-0.6157319463929868	-0.21132609307830896	2.0511980964214334	-0.5290594985889479	-0.2789809909515107	2.003035420685497	-0.5417635160411054	-0.26059189527582316	2.0826099079713463	-0.5811029948683915	-0.17425361459475794	2.058221809874768	-0.6670592054870473	-0.22570289549958208	2.008318292966429	-0.698014762985614	-0.22534804135587494	2.0802313374576076	-0.6737858269620846
26	0.8666666666666667	-0.19555480603627393	1.8834208261138745	-0.5922005612245039	-0.21316994639011236	1.8818738736729754	-0.5386250299391339	-0.25164410217643335	1.7084577684392206	-0.5112419062349866	-0.19217484628224255	1.601807065392978	-0.41107263976794595										-0.17931429953812322	1.883939240191673	-0.6433523717630099	-0.1890058014055391	1.7088272012657242	-0.6172603955817665	-0.1588019312505412	1.5793985455918087	-0.5779618464507817	-0.18706231655978803	1.5434358863717987	-0.6124163643849769	-0.17060448225196012	1.5528241687016042	-0.6212358216720963	-0.15344966866124793	1.5738215807451554	-0.5654601879278004	-0.1899894589593268	2.052784096031118	-0.6138212107785792	-0.22595892385215272	2.113099686288684	-0.6193409875948058	-0.20539025552040582	2.0502564096475893	-0.5360775314441542	-0.2670888991990276	1.9961544786654468	-0.5287252953057883	-0.25707665419353365	2.0721960050443924	-0.5762387077895605	-0.1685459078818382	2.0575352974804746	-0.6765625891401212	-0.2195795200009193	1.9991159226375277	-0.7043739814479625	-0.22358665931749175	2.0707457679569363	-0.6750263995100082
27	0.9	-0.19319561732270876	1.884846788440092	-0.5944376575241815	-0.2099890406792818	1.8829997183001461	-0.5378707519169212	-0.2464929871477078	1.7124123264512285	-0.5127061919681057	-0.19217484628224255	1.601807065392978	-0.41107263976794595										-0.17672562942052716	1.8863528034711676	-0.6458285173902909	-0.1845744923946937	1.7143982097472716	-0.6224515592386558	-0.1567552831354146	1.583614107320266	-0.5804264740545347	-0.18428967753417017	1.542453842263558	-0.6108159778730395	-0.16642253984150443	1.5535156811904196	-0.6257296677869197	-0.15129836215880055	1.574697342496253	-0.5675287758593737	-0.18690937537880192	2.055325393019513	-0.6134457235262186	-0.22508908252523405	2.114174265899781	-0.6161462142226753	-0.2052308089727503	2.05146285525657	-0.5359305219078359	-0.2591415438827308	1.9912365628394286	-0.5365079615045287	-0.24889097653034334	2.072177203269154	-0.58539911403665	-0.1633821113347219	2.0596415227529024	-0.6784506218446982	-0.21576269476189158	2.000909640346546	-0.7007512805961911	-0.22481533216106175	2.073093807057881	-0.6708124732402171
28	0.9333333333333333	-0.19027712270582953	1.8877789134695844	-0.5940188980304152	-0.20793687034956895	1.8861188489917686	-0.5403411444051456	-0.24543554926854388	1.7209392356169686	-0.5104259628637923	-0.19217484628224255	1.601807065392978	-0.41107263976794595										-0.17464124936079847	1.8906232986740996	-0.648649566680278	-0.1817534548853644	1.7236002257664569	-0.6222063101529186	-0.15456037057110503	1.587608499185982	-0.5698302037504998	-0.185159279167419	1.5435171394339502	-0.6058386148349502	-0.16774176027450483	1.5543840759627285	-0.6199268805107658	-0.14824010778075714	1.5745103634212725	-0.5664506554615732	-0.18550330614301744	2.059280496133277	-0.6188311135560038	-0.2205248240264223	2.121388857146777	-0.6216911963066901	-0.20416854531055784	2.053879239896458	-0.5334010972872968	-0.25387912855985706	1.9966094556826564	-0.5385108982532417	-0.2391172304128487	2.0726703885075373	-0.5712198858853235	-0.16248963665248023	2.0644408422170586	-0.6864016900425715	-0.2137141403869768	2.0031252916905053	-0.6946934752696563	-0.21780164029281374	2.0781869098630517	-0.6674689182724867
29	0.9666666666666667	-0.18980078744946186	1.8926737824376927	-0.5945960837329232	-0.20656301063514715	1.8911009105893521	-0.5377961200178941	-0.24268262006056635	1.7280079465478972	-0.5052729115166414	-0.19217484628224255	1.601807065392978	-0.41107263976794595										-0.17218896000932093	1.8929179554839735	-0.6511513982527667	-0.18125762649374916	1.7291175444124234	-0.623154849246906	-0.155896248021782	1.5904135122616794	-0.5775994824261105	-0.18413765456658923	1.5435006393303414	-0.6025983566402058	-0.16711277851205833	1.5535839824135909	-0.6208319178627231	-0.149261071234183	1.5772190148055307	-0.5659003137608954	-0.18224429588926677	2.0669782157741374	-0.6192588016260604	-0.21863072327735755	2.128990259343611	-0.6085567697584339	-0.1979458087251219	2.062927414874901	-0.5416272259405267	-0.24888799055588234	2.002394788190424	-0.5244610479122652	-0.23825671740163715	2.0732461205064627	-0.5692198097761823	-0.15929005919017128	2.07125864178909	-0.6866546536057463	-0.20980438225697903	2.0053040768468064	-0.6910009067025138	-0.21610699501760933	2.078763779858349	-0.6619015464679308
